<?xml version="1.0" encoding="UTF-8"?>
<level>
  <owner>Fistachka</owner>
  <repo>olen4</repo>
  <version>v1.0.2</version>
  <next number="1" owner="Fistachka" repo="bandito"/>
  <readme>
    <ru>97525cec2758ab5fe58b0a218066091bce18634e0e288644c058754666d5dcc0</ru>
    <en>94634b015cc3a78d8fc1f6950ed318ac0fd1a446d5bfba8cd8182958bcebaeef</en>
  </readme>
  <license>b1b99f5538d1fd3702219bff50c665196dfa42f6ee755c37fe41a6178d6bc6e5</license>
  <exercise number="1">
    <scale>minor</scale>
    <cadenceVariant>harmonic</cadenceVariant>
    <bpm>75</bpm>
    <lowestNote>5</lowestNote>
    <tonalities>2</tonalities>
    <video name="34.mp4" size="976817" type="video/mp4" volume="0.5">2665a8325007b73886ef4e5b22db197c158b49cedae387bc086099207a34470d</video>
    <notes>
      <note number="1" values="5" ticks="42" durationTicks="35" ppq="96" velocity="0.789"/>
      <note number="2" values="5" ticks="90" durationTicks="35" ppq="96" velocity="0.729"/>
      <note number="3" values="5" ticks="138" durationTicks="38" ppq="96" velocity="0.794"/>
      <note number="4" values="5" ticks="186" durationTicks="35" ppq="96" velocity="0.758"/>
      <note number="5" values="5" ticks="233" durationTicks="37" ppq="96" velocity="0.712"/>
      <note number="6" values="18" ticks="280" durationTicks="41" ppq="96" velocity="0.8"/>
      <note number="7" values="5" ticks="328" durationTicks="44" ppq="96" velocity="0.8"/>
      <note number="8" values="6" ticks="376" durationTicks="42" ppq="96" velocity="0.8"/>
      <note number="9" values="7" ticks="424" durationTicks="116" ppq="96" velocity="0.8"/>
    </notes>
  </exercise>
  <exercise number="2">
    <scale>chromaticminor</scale>
    <cadenceVariant>harmonic</cadenceVariant>
    <bpm>75</bpm>
    <lowestNote>5</lowestNote>
    <tonalities>2</tonalities>
    <video name="35.mp4" size="880313" type="video/mp4" volume="0.5">d5a6c1fe9828c8e2b9a25c2138fe46d4afdace57ab30c415959a5b16a2ff225d</video>
    <notes>
      <note number="1" values="18" ticks="63" durationTicks="31" ppq="96" velocity="0.837"/>
      <note number="2" values="18" ticks="111" durationTicks="31" ppq="96" velocity="0.804"/>
      <note number="3" values="18" ticks="159" durationTicks="32" ppq="96" velocity="0.837"/>
      <note number="4" values="18" ticks="207" durationTicks="46" ppq="96" velocity="0.837"/>
      <note number="5" values="79" ticks="254" durationTicks="35" ppq="96" velocity="0.837"/>
      <note number="6" values="79" ticks="304" durationTicks="38" ppq="96" velocity="0.837"/>
      <note number="7" values="69" ticks="351" durationTicks="46" ppq="96" velocity="0.837"/>
      <note number="8" values="79" ticks="399" durationTicks="47" ppq="96" velocity="0.837"/>
      <note number="9" values="18" ticks="447" durationTicks="95" ppq="96" velocity="0.837"/>
    </notes>
  </exercise>
  <exercise number="3">
    <scale>minor</scale>
    <cadenceVariant>harmonic</cadenceVariant>
    <bpm>75</bpm>
    <lowestNote>18</lowestNote>
    <tonalities>2</tonalities>
    <video name="36.mp4" size="872453" type="video/mp4" volume="0.5">3aae460484ec82dad1e0143ba0f528a91e3408767d97f19f932899f59e4c1fc0</video>
    <notes>
      <note number="1" values="18" ticks="65" durationTicks="35" ppq="96" velocity="0.812"/>
      <note number="2" values="18" ticks="112" durationTicks="34" ppq="96" velocity="0.769"/>
      <note number="3" values="18" ticks="160" durationTicks="30" ppq="96" velocity="0.817"/>
      <note number="4" values="18" ticks="209" durationTicks="29" ppq="96" velocity="0.812"/>
      <note number="5" values="48" ticks="257" durationTicks="30" ppq="96" velocity="0.744"/>
      <note number="6" values="48" ticks="304" durationTicks="40" ppq="96" velocity="0.822"/>
      <note number="7" values="38" ticks="356" durationTicks="46" ppq="96" velocity="0.822"/>
      <note number="8" values="28" ticks="405" durationTicks="46" ppq="96" velocity="0.822"/>
      <note number="9" values="38" ticks="454" durationTicks="95" ppq="96" velocity="0.822"/>
    </notes>
  </exercise>
  <exercise number="4">
    <scale>minor</scale>
    <cadenceVariant>harmonic</cadenceVariant>
    <bpm>75</bpm>
    <lowestNote>18</lowestNote>
    <tonalities>2</tonalities>
    <video name="37.mp4" size="797910" type="video/mp4" volume="0.5">7c23865ef20cad3fcd2100192349484840d3d1d5fd40f413351024bd0ec6cc86</video>
    <notes>
      <note number="1" values="18" ticks="109" durationTicks="42" ppq="96" velocity="0.835"/>
      <note number="2" values="28" ticks="157" durationTicks="45" ppq="96" velocity="0.803"/>
      <note number="3" values="38" ticks="205" durationTicks="96" ppq="96" velocity="0.8"/>
      <note number="4" values="18" ticks="301" durationTicks="95" ppq="96" velocity="0.8"/>
      <note number="5" values="68" ticks="396" durationTicks="33" ppq="96" velocity="0.8"/>
      <note number="6" values="68" ticks="445" durationTicks="46" ppq="96" velocity="0.8"/>
      <note number="7" values="78" ticks="492" durationTicks="72" ppq="96" velocity="0.8"/>
      <note number="8" values="68" ticks="576" durationTicks="58" ppq="96" velocity="0.8"/>
      <note number="9" values="58" ticks="648" durationTicks="162" ppq="96" velocity="0.8"/>
    </notes>
  </exercise>
  <exercise number="5">
    <scale>minor</scale>
    <cadenceVariant>harmonic</cadenceVariant>
    <bpm>100</bpm>
    <lowestNote>18</lowestNote>
    <tonalities>2</tonalities>
    <video name="38.mp4" size="999292" type="video/mp4" volume="0.5">971827e9bdee0a27036314896c99bf9306f80c97055a9044b4829cee5a041d48</video>
    <notes>
      <note number="1" values="38" ticks="101" durationTicks="33" ppq="96" velocity="0.811"/>
      <note number="2" values="38" ticks="151" durationTicks="31" ppq="96" velocity="0.764"/>
      <note number="3" values="38" ticks="198" durationTicks="30" ppq="96" velocity="0.811"/>
      <note number="4" values="38" ticks="247" durationTicks="32" ppq="96" velocity="0.811"/>
      <note number="5" values="38" ticks="327" durationTicks="18" ppq="96" velocity="0.74"/>
      <note number="6" values="38" ticks="349" durationTicks="91" ppq="96" velocity="0.819"/>
    </notes>
  </exercise>
  <exercise number="6">
    <scale>minor</scale>
    <cadenceVariant>harmonic</cadenceVariant>
    <bpm>100</bpm>
    <lowestNote>18</lowestNote>
    <tonalities>2</tonalities>
    <video name="39.mp4" size="1002208" type="video/mp4" volume="0.5">156aca85f3cae95595669193bcd6949b8336ea4b5ce591c19ad9d4c3a2e8c50c</video>
    <notes>
      <note number="1" values="58" ticks="62" durationTicks="24" ppq="96" velocity="0.824"/>
      <note number="2" values="48" ticks="86" durationTicks="23" ppq="96" velocity="0.799"/>
      <note number="3" values="38" ticks="110" durationTicks="23" ppq="96" velocity="0.827"/>
      <note number="4" values="28" ticks="135" durationTicks="47" ppq="96" velocity="0.827"/>
      <note number="5" values="18" ticks="182" durationTicks="48" ppq="96" velocity="0.827"/>
      <note number="6" values="68" ticks="231" durationTicks="84" ppq="96" velocity="0.827"/>
      <note number="7" values="58" ticks="317" durationTicks="95" ppq="96" velocity="0.827"/>
    </notes>
  </exercise>
  <exercise number="7">
    <scale>minor</scale>
    <cadenceVariant>harmonic</cadenceVariant>
    <bpm>100</bpm>
    <lowestNote>18</lowestNote>
    <tonalities>2</tonalities>
    <video name="40.mp4" size="1614436" type="video/mp4" volume="0.5">ed9e9db29c2409739635de15e462c2853b71c15ad7cd4cc106cea9e87d4787ee</video>
    <notes>
      <note number="1" values="58" ticks="19" durationTicks="33" ppq="96" velocity="0.803"/>
      <note number="2" values="58" ticks="69" durationTicks="31" ppq="96" velocity="0.764"/>
      <note number="3" values="58" ticks="116" durationTicks="30" ppq="96" velocity="0.803"/>
      <note number="4" values="68" ticks="165" durationTicks="32" ppq="96" velocity="0.803"/>
      <note number="5" values="58" ticks="236" durationTicks="18" ppq="96" velocity="0.732"/>
      <note number="6" values="58" ticks="262" durationTicks="91" ppq="96" velocity="0.819"/>
    </notes>
  </exercise>
  <exercise number="8">
    <scale>chromaticminor</scale>
    <cadenceVariant>harmonic</cadenceVariant>
    <bpm>100</bpm>
    <lowestNote>18</lowestNote>
    <tonalities>2</tonalities>
    <video name="41.mp4" size="1738567" type="video/mp4" volume="0.5">d3ddc2d0decfaff8819727fbe02a3bc74b4d3bb3b987fef62266de2ac4a8950d</video>
    <notes>
      <note number="1" values="58" ticks="52" durationTicks="24" ppq="96" velocity="0.829"/>
      <note number="2" values="498" ticks="76" durationTicks="23" ppq="96" velocity="0.782"/>
      <note number="3" values="58" ticks="100" durationTicks="24" ppq="96" velocity="0.819"/>
      <note number="4" values="188" ticks="125" durationTicks="47" ppq="96" velocity="0.819"/>
      <note number="5" values="68" ticks="196" durationTicks="20" ppq="96" velocity="0.819"/>
      <note number="6" values="58" ticks="220" durationTicks="95" ppq="96" velocity="0.819"/>
      <note number="7" values="48" ticks="317" durationTicks="95" ppq="96" velocity="0.819"/>
    </notes>
  </exercise>
  <exercise number="9">
    <scale>minor</scale>
    <cadenceVariant>harmonic</cadenceVariant>
    <bpm>100</bpm>
    <lowestNote>18</lowestNote>
    <tonalities>2</tonalities>
    <video name="42.mp4" size="2535813" type="video/mp4" volume="0.5">1449a8f6aa74b2efd537a4cbe94c4ddb7138958d7812a16afbe16eac45b23da4</video>
    <notes>
      <note number="1" values="48" ticks="48" durationTicks="50" ppq="96" velocity="0.747"/>
      <note number="2" values="38" ticks="98" durationTicks="47" ppq="96" velocity="0.842"/>
      <note number="3" values="28" ticks="145" durationTicks="47" ppq="96" velocity="0.787"/>
      <note number="4" values="188" ticks="194" durationTicks="142" ppq="96" velocity="0.756"/>
      <note number="5" values="78" ticks="339" durationTicks="46" ppq="96" velocity="0.834"/>
      <note number="6" values="68" ticks="389" durationTicks="46" ppq="96" velocity="0.757"/>
      <note number="7" values="58" ticks="443" durationTicks="49" ppq="96" velocity="0.757"/>
    </notes>
  </exercise>
</level>
